<?xml version="1.0" encoding="UTF-8"?>
<svg width="240px" height="36px" viewBox="0 0 240 36" version="1.1" xmlns="http://www.w3.org/2000/svg" xmlns:xlink="http://www.w3.org/1999/xlink">
    <title>logo-blue</title>
    <defs>
        <linearGradient x1="49.8501479%" y1="105.715519%" x2="49.8501479%" y2="0.704107545%" id="linearGradient-1">
            <stop stop-color="#004C8C" offset="0%"></stop>
            <stop stop-color="#529BD9" offset="100%"></stop>
        </linearGradient>
        <linearGradient x1="0.518461833%" y1="50.2349206%" x2="99.8412091%" y2="50.2349206%" id="linearGradient-2">
            <stop stop-color="#004C8C" offset="0%"></stop>
            <stop stop-color="#529BD9" offset="100%"></stop>
        </linearGradient>
        <linearGradient x1="-0.180164536%" y1="50.2349206%" x2="100.588248%" y2="50.2349206%" id="linearGradient-3">
            <stop stop-color="#043466" offset="1.918e-05%"></stop>
            <stop stop-color="#004C8C" offset="100%"></stop>
        </linearGradient>
    </defs>
    <g id="Page-1" stroke="none" stroke-width="1" fill="none" fill-rule="evenodd">
        <g id="logo-blue" transform="translate(0.000000, 0.030762)" fill-rule="nonzero">
            <g id="Group" transform="translate(44.828400, 3.969238)">
                <path d="M87.9736,26.9324 C86.2016,26.9324 84.6956,26.9324 83.0126,26.9324 C83.0126,17.8959 83.0126,9.03655 83.0126,0 C84.6066,0 86.2016,0 87.8846,0 C87.8846,2.92359 87.8846,5.75858 87.8846,8.94795 C90.0106,7.08749 92.1376,6.55593 94.6176,7.17608 C97.2756,7.79624 99.1366,9.92248 99.2246,12.9347 C99.4016,17.5415 99.2246,22.237 99.2246,26.9324 C97.6306,26.9324 96.0356,26.9324 94.3526,26.9324 C94.3526,24.4518 94.3526,22.0598 94.3526,19.6678 C94.3526,18.1617 94.3526,16.6556 94.3526,15.2381 C94.3526,12.8461 93.2006,11.5172 91.1626,11.5172 C89.1256,11.5172 87.8846,12.7575 87.8846,15.3267 C87.8846,18.8704 87.8846,22.5028 87.8846,26.0465 C87.9736,26.2237 87.9736,26.4895 87.9736,26.9324 Z" id="Path" fill="#004C8C"></path>
                <path d="M56.6116,25.4264 C54.3965,27.464 51.9158,27.5526 49.3466,26.9325 C46.5116,26.2237 44.9169,24.0089 45.0941,20.9081 C45.1827,18.0731 46.866,16.0354 49.701,15.5925 C50.8527,15.4153 52.093,15.4153 53.3333,15.3267 C54.3965,15.3267 55.3706,15.3267 56.5226,15.3267 C56.6116,13.8206 56.6996,12.3145 55.1052,11.6944 C52.8904,10.8084 50.7641,10.9856 48.9923,12.7575 C47.9291,11.783 46.866,10.7198 45.8029,9.65671 C46.423,9.12515 47.0432,8.50499 47.7519,8.15062 C51.4729,6.46734 55.1936,6.46734 58.8266,8.4164 C60.5976,9.39093 61.3066,11.1628 61.3956,13.1119 C61.4836,17.7187 61.3956,22.3256 61.3956,27.021 C59.8006,27.021 58.2056,27.021 56.5226,27.021 C56.6116,26.4895 56.6116,26.0465 56.6116,25.4264 Z M56.3456,18.6933 C54.7508,18.6933 53.2447,18.6047 51.7387,18.6933 C50.4983,18.7818 49.701,19.6678 49.701,20.8195 C49.701,21.9712 50.3212,22.68 51.3843,23.0343 C54.7508,23.9203 56.7886,22.237 56.3456,18.6933 Z" id="Shape" fill="#004C8B"></path>
                <path d="M41.1959,21.1738 C42.0819,22.1484 42.9678,23.1229 43.9423,24.186 C42.6134,25.6921 40.8416,26.7552 38.8039,27.021 C37.2978,27.1982 35.7031,27.1982 34.197,27.021 C30.8305,26.4895 28.7042,24.4518 27.8183,21.2624 C26.9324,17.9845 27.021,14.7065 28.4385,11.6057 C30.0331,8.15059 33.1339,6.6445 37.2978,7.08747 C40.6644,7.44184 43.4994,9.83387 44.2081,13.289 C44.5625,14.9723 44.5625,16.7442 44.7397,18.6046 C40.4872,18.6046 36.4119,18.6046 32.3366,18.6046 C32.1594,20.2879 32.7795,21.7054 34.1085,22.4142 C36.1461,23.5659 38.6267,23.1229 41.1959,21.1738 Z M32.248,15.0609 C34.8172,15.0609 37.2092,15.0609 39.6899,15.0609 C39.5127,12.4031 38.1838,11.0742 35.8803,11.0742 C33.7541,11.1628 32.3366,12.5803 32.248,15.0609 Z" id="Shape" fill="#004C8B"></path>
                <path d="M123.5876,21.8827 C124.3856,22.68 125.1826,23.3887 125.9796,24.1861 C123.4106,27.1097 119.2466,28.0842 115.3486,26.6667 C111.8046,25.4264 110.3876,22.5914 110.2986,19.0477 C110.2106,17.01 110.2986,14.8838 110.9196,12.9347 C112.0706,8.85939 115.1716,7.17612 119.6016,7.53049 C123.0566,7.88486 125.8916,10.6313 126.3346,14.4408 C126.5116,15.6811 126.5116,16.9214 126.6886,18.3389 C122.4366,18.3389 118.3606,18.3389 114.2856,18.3389 C113.9316,20.288 114.7286,22.1484 116.3236,23.123 C118.3606,24.4519 121.0186,24.0089 123.5876,21.8827 Z M122.5246,15.6811 C122.5246,12.4031 120.7526,10.5427 117.7406,10.8085 C115.3486,10.9856 113.7546,13.1119 114.1086,15.6811 C116.9436,15.6811 119.7786,15.6811 122.5246,15.6811 Z" id="Shape" fill="#529BD9"></path>
                <path d="M167.3536,18.4274 C167.1766,20.8195 168.0616,22.5913 169.8336,23.3887 C172.4036,24.4518 174.7066,23.9203 176.8326,21.9712 C177.6306,22.6799 178.4276,23.4773 179.2246,24.186 C176.7446,27.3754 172.2256,27.8184 168.6826,26.7552 C165.5816,25.7807 163.5436,22.9457 163.3666,19.1362 C163.2776,17.1871 163.4556,15.1495 163.8986,13.289 C164.8726,9.3909 167.8846,7.35325 172.1376,7.61903 C175.8586,7.79622 178.7816,10.3654 179.4016,14.175 C179.6676,15.5039 179.6676,16.9214 179.7566,18.516 C175.5926,18.4275 171.5176,18.4274 167.3536,18.4274 Z M175.8586,15.681 C175.5036,12.0487 173.7316,10.454 170.7196,10.8084 C168.5046,11.0742 166.9986,13.289 167.3536,15.681 C170.1886,15.681 173.0236,15.681 175.8586,15.681 Z" id="Shape" fill="#529BD9"></path>
                <path d="M132.0046,8.15053 C132.0046,8.5049 132.0926,8.94787 132.0926,9.56803 C133.9536,7.88475 135.9916,7.35319 138.2946,7.61897 C141.2186,7.88475 143.6106,10.0996 143.6986,13.0232 C143.8756,17.4529 143.8756,21.8825 143.8756,26.3122 C143.8756,26.578 143.5216,27.1096 143.2556,27.1096 C142.1926,27.1982 141.1296,27.1096 139.8896,27.1096 C139.8896,24.6289 139.8896,22.3255 139.8896,20.0221 C139.8896,18.2502 139.8896,16.4783 139.8896,14.7065 C139.8006,12.4916 138.3836,11.0741 136.2566,10.9855 C134.2196,10.8969 132.6246,12.1372 132.1816,14.1749 C132.0046,14.9722 132.0046,15.7696 132.0046,16.5669 C132.0046,20.0221 132.0046,23.3886 132.0046,26.9324 C130.6756,26.9324 129.5236,26.9324 128.1946,26.9324 C128.1946,20.6422 128.1946,14.3521 128.1946,8.15053 C129.5236,8.15053 130.7646,8.15053 132.0046,8.15053 Z" id="Path" fill="#529BD9"></path>
                <path d="M63.4326,0.177124 C65.1166,0.177124 66.7106,0.177124 68.3946,0.177124 C68.3946,6.73305 68.3946,13.3776 68.3946,20.0221 C68.3946,22.5913 68.5716,22.7685 71.1406,22.7685 C71.4066,22.7685 71.6726,22.7685 71.9376,22.7685 C72.0266,23.0343 72.0266,23.1229 72.0266,23.2115 C72.0266,24.3632 72.0266,25.5149 72.0266,26.9324 C70.0776,26.9324 68.1286,27.1982 66.2676,26.3122 C64.2306,25.3377 63.4326,23.5658 63.3446,21.4396 C63.4326,14.4407 63.4326,7.26461 63.4326,0.177124 Z" id="Path" fill="#014C8C"></path>
                <path d="M106.1346,8.06205 C107.5526,8.06205 108.6156,8.06205 109.8556,8.06205 C109.8556,9.03658 109.8556,10.0111 109.8556,11.0742 C108.6156,11.0742 107.4636,11.0742 106.2236,11.0742 C106.2236,14.7952 106.1356,18.3389 106.2236,21.8826 C106.2236,22.9458 106.9326,23.5659 108.0846,23.6545 C108.6156,23.6545 109.1476,23.6545 109.8556,23.6545 C109.8556,24.8062 109.8556,25.7808 109.8556,26.8439 C104.8946,27.8184 102.1486,25.072 102.3256,21.0853 C102.5026,17.8959 102.3256,14.7066 102.3256,11.5172 C102.3256,11.4286 102.2366,11.34 102.2366,11.1628 C101.6166,11.0742 100.9966,11.0742 100.2876,10.9856 C100.2876,10.0111 100.2876,9.12517 100.2876,8.15064 C100.9966,8.06205 101.6166,8.06205 102.3256,7.97346 C102.3256,6.11299 102.3256,4.25253 102.3256,2.30347 C103.6546,2.30347 104.8066,2.30347 106.1346,2.30347 C106.1346,4.16393 106.1346,6.0244 106.1346,8.06205 Z" id="Path" fill="#529BD9"></path>
                <path d="M185.1606,26.9325 C184.0086,26.9325 182.7686,26.9325 181.5286,26.9325 C181.5286,20.5537 181.5286,14.175 181.5286,7.79627 C182.6796,7.79627 183.8316,7.79627 185.0716,7.79627 C185.1606,8.32783 185.1606,8.85939 185.3376,9.56814 C187.1986,7.79627 189.4126,7.17611 191.7166,7.61908 C192.8686,7.79627 193.9316,8.50502 195.1716,9.03658 C193.9316,10.2769 193.0456,11.1628 192.0706,12.1374 C188.7046,9.39095 185.3376,11.8716 185.3376,15.2381 C185.3376,15.7697 185.3376,16.2127 185.3376,16.7442 C185.3376,20.1108 185.3376,23.3887 185.3376,26.7553 C185.3376,26.7553 185.2496,26.8439 185.1606,26.9325 Z" id="Path" fill="#529CD9"></path>
                <path d="M132.0046,8.15054 C130.7646,8.15054 129.5236,8.15054 128.2836,8.15054 C128.9926,7.53039 131.2956,7.53039 132.0046,8.15054 Z" id="Path" fill="#348BD3"></path>
                <path d="M157.8736,21.0853 C157.5196,22.5028 156.6336,23.6545 154.9506,23.7431 C154.7726,23.7431 154.5956,23.7431 154.5076,23.7431 L154.4186,23.7431 C154.1526,23.7431 153.9756,23.8317 153.7096,23.8317 C153.7096,23.8317 153.7096,23.8317 153.6216,23.8317 C151.9376,23.8317 150.6976,22.9457 150.1656,21.3511 C149.8116,20.1107 149.6346,18.8704 149.5456,17.6301 C149.5456,17.1872 149.5456,16.8328 149.5456,16.3898 C149.6346,15.4153 149.8116,14.3522 150.0776,13.3776 C150.5206,11.7829 151.9376,10.9856 153.7096,10.9856 C153.8866,10.9856 154.0646,10.9856 154.3296,11.0742 C154.5076,11.0742 154.6846,11.1628 154.8616,11.1628 C154.8616,11.1628 157.3426,11.6058 157.6966,14.0864 C157.6966,14.4408 157.7856,14.8837 157.7856,15.4153 L157.7856,0 L157.6076,0 L157.6076,9.47951 C157.2536,9.12514 156.9876,8.94795 156.8106,8.77076 C153.2666,5.84718 147.3306,7.53045 146.2676,11.9601 C145.3816,15.4153 145.3816,19.0476 146.2676,22.5028 C146.9766,25.3378 149.0146,26.8439 151.9376,27.021 C154.0646,27.1982 156.0136,26.7553 157.6076,24.9834 C157.6966,25.7807 157.6966,26.3123 157.7856,26.8439 L161.4176,26.8439 L157.7856,26.8439 L157.7856,21.0853 L157.8736,21.0853 Z" id="Path" fill="#529BD9"></path>
                <polygon id="Path" fill="#529BD9" points="157.8736 0 157.8736 15.3267 157.8736 17.4529 157.8736 21.0853 157.8736 26.9324 161.5056 26.9324 161.5056 0"></polygon>
                <polygon id="Path" fill="#004C8C" points="23.3887 7.35327 20.1107 20.1107 16.0354 7.44186 16.0354 7.35327 12.4031 7.35327 12.4031 7.44186 8.3278 20.1107 4.9612 7.35327 -1.42108547e-14 7.35327 5.7586 27.2868 6.0243 27.2868 10.0996 27.2868 14.1749 13.5548 18.2502 27.2868 22.4141 27.2868 22.6799 27.2868 28.4385 7.35327"></polygon>
                <path d="M78.1396,7.70771 L78.1396,7.17615 L78.1396,6.02443 C78.2286,4.69553 78.1396,3.36662 78.1396,2.03772 L73.1786,2.03772 L73.1786,7.70771 C73.0896,7.70771 72.9126,7.70771 72.8236,7.70771 L71.2296,7.70771 L71.2296,7.7963 L71.2296,11.4286 L71.2296,11.5172 C71.9376,11.5172 72.5586,11.6058 73.1786,11.6058 C73.2666,11.783 73.2666,11.783 73.2666,11.8716 C73.2666,14.7066 73.2666,17.453 73.2666,20.288 L73.2666,20.6424 C73.2666,20.9082 73.2666,21.1739 73.2666,21.4397 C73.2666,24.6291 75.2156,26.6667 78.4056,26.9325 C79.4686,27.0211 80.5316,26.9325 81.6836,26.9325 L81.6836,22.7686 C81.0636,22.7686 80.5316,22.7686 79.9996,22.7686 C78.9366,22.7686 78.3166,22.1485 78.2286,21.0853 L78.2286,20.5538 L78.2286,11.5172 L81.6836,11.5172 L81.6836,11.4286 L81.6836,8.06208 L81.6836,7.70771 L78.1396,7.70771 Z" id="Path" fill="#004C8C"></path>
            </g>
            <path d="M30.0332,8.11986832 L30.0332,22.8264383 C30.0332,26.2815383 24.186,30.1796383 21.7054,30.1796383 C19.2248,30.1796383 17.6301,28.1420383 17.6301,28.1420383 C17.6301,28.1420383 15.7697,29.9139383 14.7951,30.0025383 L5.22702,30.0025383 L5.22702,13.3469383 C5.22702,13.3469383 5.40421,11.3092383 6.73311,8.11986832 L1.3289,8.11986832 C1.3289,8.11986832 0,11.3092383 0,13.2583383 C0,15.2073383 0,35.1409383 0,35.1409383 L17.4529,35.1409383 L17.6301,35.1409383 C17.6301,35.1409383 18.7818,35.1409383 24.2746,35.1409383 C33.6656,33.6348383 35.0831,23.8009383 35.2602,22.8264383 L35.2602,8.11986832 L30.0332,8.11986832 Z" id="Path" fill="#004C8C"></path>
            <polygon id="Path" fill="url(#linearGradient-1)" points="20.1993 8.11986832 15.0609 8.11986832 15.0609 25.3956383 20.1993 25.3956383"></polygon>
            <path d="M17.6301,28.0533383 L17.6301,35.1408383 L12.4031,35.1408383 L12.4031,29.9138383 L14.7951,29.9138383 C15.681,29.8252383 17.2757,28.4077383 17.6301,28.0533383 Z" id="Path" fill="url(#linearGradient-2)"></path>
            <path d="M22.237,30.0910383 L22.237,35.1408383 L17.6301,35.1408383 L17.6301,28.0533383 C17.6301,28.0533383 19.2248,30.0910383 21.7054,30.0910383 C21.8826,30.1796383 22.0598,30.0910383 22.237,30.0910383 Z" id="Path" fill="url(#linearGradient-3)"></path>
            <path d="M35.2603,0.0578571195 C35.2603,1.82972832 35.2603,3.42441832 35.2603,5.10768832 C24.4519,5.10768832 13.6434,5.10768832 2.65784,5.10768832 C4.96127,2.18409832 7.88486,0.23504432 11.4286,0.14645032 C19.3134,-0.11933008 27.1983,0.0578571195 35.2603,0.0578571195 Z" id="Path" fill="#529BD9"></path>
        </g>
    </g>
</svg>