<?xml version='1.0' encoding='utf-8'?>
<svg xmlns="http://www.w3.org/2000/svg" width="36px" height="36px" viewBox="0 0 36 36" version="1.1" xmlns:xlink="http://www.w3.org/1999/xlink"><defs>
        <linearGradient x1="49.8501479%" y1="105.715519%" x2="49.8501479%" y2="0.704107545%" id="linearGradient-1">
            <stop stop-color="#004C8C" offset="0%" />
            <stop stop-color="#529BD9" offset="100%" />
        </linearGradient>
        <linearGradient x1="0.518461833%" y1="50.2349206%" x2="99.8412091%" y2="50.2349206%" id="linearGradient-2">
            <stop stop-color="#004C8C" offset="0%" />
            <stop stop-color="#529BD9" offset="100%" />
        </linearGradient>
        <linearGradient x1="-0.180164536%" y1="50.2349206%" x2="100.588248%" y2="50.2349206%" id="linearGradient-3">
            <stop stop-color="#043466" offset="1.918e-05%" />
            <stop stop-color="#004C8C" offset="100%" />
        </linearGradient>
    </defs>
    <g id="logo-mark" fill-rule="nonzero"><path d="M30.0332,8.11986832 L30.0332,22.8264383 C30.0332,26.2815383 24.186,30.1796383 21.7054,30.1796383 C19.2248,30.1796383 17.6301,28.1420383 17.6301,28.1420383 C17.6301,28.1420383 15.7697,29.9139383 14.7951,30.0025383 L5.22702,30.0025383 L5.22702,13.3469383 C5.22702,13.3469383 5.40421,11.3092383 6.73311,8.11986832 L1.3289,8.11986832 C1.3289,8.11986832 0,11.3092383 0,13.2583383 C0,15.2073383 0,35.1409383 0,35.1409383 L17.4529,35.1409383 L17.6301,35.1409383 C17.6301,35.1409383 18.7818,35.1409383 24.2746,35.1409383 C33.6656,33.6348383 35.0831,23.8009383 35.2602,22.8264383 L35.2602,8.11986832 L30.0332,8.11986832 Z" id="Path" fill="#004C8C" />
            <polygon id="Path" fill="url(#linearGradient-1)" points="20.1993 8.11986832 15.0609 8.11986832 15.0609 25.3956383 20.1993 25.3956383" />
            <path d="M17.6301,28.0533383 L17.6301,35.1408383 L12.4031,35.1408383 L12.4031,29.9138383 L14.7951,29.9138383 C15.681,29.8252383 17.2757,28.4077383 17.6301,28.0533383 Z" id="Path" fill="url(#linearGradient-2)" />
            <path d="M22.237,30.0910383 L22.237,35.1408383 L17.6301,35.1408383 L17.6301,28.0533383 C17.6301,28.0533383 19.2248,30.0910383 21.7054,30.0910383 C21.8826,30.1796383 22.0598,30.0910383 22.237,30.0910383 Z" id="Path" fill="url(#linearGradient-3)" />
            <path d="M35.2603,0.0578571195 C35.2603,1.82972832 35.2603,3.42441832 35.2603,5.10768832 C24.4519,5.10768832 13.6434,5.10768832 2.65784,5.10768832 C4.96127,2.18409832 7.88486,0.23504432 11.4286,0.14645032 C19.3134,-0.11933008 27.1983,0.0578571195 35.2603,0.0578571195 Z" id="Path" fill="#529BD9" />
        </g></svg>